<svg id="b67296a1-96f8-47d6-a610-e579a45bdb53" data-name="Layer 1" xmlns="http://www.w3.org/2000/svg" width="865.76" height="682.89" viewBox="0 0 865.76 682.89"><g id="a4587212-aa90-4216-94e0-f952dc422139" data-name="freepik--background-simple--inject-5"><path d="M119.66,285A214.86,214.86,0,0,1,234.09,116.18a489.14,489.14,0,0,1,179.6-53C584.21,47.2,632.2,134.61,661,213.48S783.58,425.6,774,556.7c0,0-7.47,72.53-35.18,105.53H118.44s-36.25-49,2.15-141.76-12.8-97-3.2-211C118.11,300.72,118.88,292.6,119.66,285Z" fill="#e6e7e8"/><path d="M119.66,285A214.86,214.86,0,0,1,234.09,116.18a489.14,489.14,0,0,1,179.6-53C584.21,47.2,632.2,134.61,661,213.48S783.58,425.6,774,556.7c0,0-7.47,72.53-35.18,105.53H118.44s-36.25-49,2.15-141.76-12.8-97-3.2-211C118.11,300.72,118.88,292.6,119.66,285Z" fill="#e6e7e8" opacity="0.7" style="isolation:isolate"/></g><g id="b8106819-0a3e-49e0-a3e2-af221cdc3db7" data-name="freepik--Window--inject-5"><g opacity="0.3"><rect x="136.56" y="29.41" width="94.74" height="135.62" fill="none" stroke="#38382e" stroke-linecap="round" stroke-linejoin="round"/><rect x="237.81" y="29.41" width="94.74" height="135.62" fill="none" stroke="#38382e" stroke-linecap="round" stroke-linejoin="round"/><rect x="339.06" y="29.41" width="94.74" height="135.62" fill="none" stroke="#38382e" stroke-linecap="round" stroke-linejoin="round"/><rect x="136.56" y="171.53" width="94.74" height="135.62" fill="none" stroke="#38382e" stroke-linecap="round" stroke-linejoin="round"/><rect x="237.81" y="171.53" width="94.74" height="135.62" fill="none" stroke="#38382e" stroke-linecap="round" stroke-linejoin="round"/><rect x="339.06" y="171.53" width="94.74" height="135.62" fill="none" stroke="#38382e" stroke-linecap="round" stroke-linejoin="round"/><rect x="136.56" y="313.66" width="94.74" height="135.62" fill="none" stroke="#38382e" stroke-linecap="round" stroke-linejoin="round"/><rect x="237.81" y="313.66" width="94.74" height="135.62" fill="none" stroke="#38382e" stroke-linecap="round" stroke-linejoin="round"/><rect x="339.06" y="313.66" width="94.74" height="135.62" fill="none" stroke="#38382e" stroke-linecap="round" stroke-linejoin="round"/></g></g><path d="M715.78,49.85V481.4a21.46,21.46,0,0,1-21.44,21.46H507.86a21.46,21.46,0,0,1-21.44-21.46V49.84A21.43,21.43,0,0,1,507.85,28.4h80l.07.25c2,7.18,6.58,11.84,11.68,11.84h2.84c5.11,0,9.68-4.66,11.69-11.84l.07-.25h80a21.44,21.44,0,0,1,21.51,21.38Z" fill="#fff"/><path d="M715.78,359.29V49.85A21.45,21.45,0,0,0,694.34,28.4h-80l-.07.25c-2,7.18-6.58,11.84-11.69,11.84h-2.84c-5.09,0-9.69-4.66-11.68-11.84L588,28.4H507.85a21.43,21.43,0,0,0-21.43,21.44h0V359.29Z" fill="#f1f2f2"/><path d="M614.24,28.65c-2,7.18-6.58,11.84-11.69,11.84h-2.84c-5.09,0-9.69-4.66-11.68-11.84L588,28.4H520.44a34,34,0,0,0-33.61,28.66H715.36a34,34,0,0,0-33.6-28.66H614.31Z" fill="#d4d4d4"/><path d="M730.36,152.93V109.82h-3.94V54.64a34,34,0,0,0-34-34H509.74a34,34,0,0,0-34,34h0V493.13a34,34,0,0,0,34,34h182.7a34,34,0,0,0,34-34V189.66h3.9V164.19h-3.9V152.93ZM715.78,468.84a34,34,0,0,1-34,34H520.44a34,34,0,0,1-34-34h0V62.39a34,34,0,0,1,34-34h67.45l.07.25c2,7.18,6.58,11.84,11.68,11.84h2.84c5.11,0,9.68-4.66,11.69-11.84l.07-.25h67.52a34,34,0,0,1,34,34Z" fill="#bcbec0"/><path d="M603.59,30a3.2,3.2,0,1,0-3.2,3.2,3.2,3.2,0,0,0,3.2-3.2Z" fill="#fff"/><path d="M506.8,42.27c0,3.23-3.63,4.39-3.64,6.85v.18h3.52v1.08H502v-.91c0-3.46,3.62-4.14,3.62-7.11,0-1.1-.37-1.68-1.25-1.68s-1.25.62-1.25,1.58v.93H502v-.86c0-1.64.75-2.73,2.4-2.73S506.8,40.63,506.8,42.27Z" fill="#a7a9ac"/><path d="M512.67,42.26v.22a2.14,2.14,0,0,1-1.31,2.21,2.13,2.13,0,0,1,1.31,2.22v.82c0,1.65-.77,2.72-2.42,2.72s-2.4-1.07-2.4-2.72V47H509v.81c0,1,.4,1.55,1.25,1.55s1.27-.57,1.27-1.67v-.82c0-1.05-.46-1.57-1.35-1.6h-.64V44.22h.76a1.29,1.29,0,0,0,1.3-1.29V42.3c0-1.1-.39-1.67-1.27-1.67s-1.25.6-1.25,1.57v.54h-1.11v-.48c0-1.64.76-2.71,2.4-2.71S512.67,40.62,512.67,42.26Z" fill="#a7a9ac"/><path d="M515,43.07v1.42h-1.14V43.07Zm0,5.83v1.42h-1.14V48.9Z" fill="#a7a9ac"/><path d="M517.36,44a1.75,1.75,0,0,1,1.6-.89c1.42,0,2,1,2,2.54v2.09c0,1.65-.77,2.72-2.42,2.72s-2.4-1.07-2.4-2.72v-.71h1.12v.8c0,1,.4,1.55,1.25,1.55s1.25-.58,1.25-1.55V45.77c0-1-.39-1.54-1.25-1.54a1.18,1.18,0,0,0-1.21,1.12v.28h-1.11l.29-6h4.27v1.06h-3.16Z" fill="#a7a9ac"/><path d="M526.94,42.24v.24h-1V42.2c0-1-.4-1.52-1.28-1.52s-1.3.58-1.3,1.72v2.36a1.72,1.72,0,0,1,1.74-1.14c1.42,0,2,1,2,2.53v1.62c0,1.65-.83,2.72-2.46,2.72s-2.46-1.07-2.46-2.72V42.31c0-1.69.77-2.76,2.46-2.76S526.94,40.61,526.94,42.24Zm-3.69,4v1.61c0,1,.4,1.55,1.27,1.55s1.28-.58,1.28-1.55V46.25c0-1-.41-1.55-1.28-1.55S523.25,45.33,523.25,46.25Z" fill="#a7a9ac"/><rect x="640.92" y="42.71" width="3.03" height="7.57" fill="#a7a9ac"/><rect x="644.96" y="41.19" width="3.03" height="9.09" fill="#a7a9ac"/><rect x="648.98" y="40.12" width="3.03" height="10.15" fill="#a7a9ac"/><rect x="653.02" y="38.25" width="3.03" height="12.03" fill="#a7a9ac"/><path d="M693.5,50.06H675.34V39H693.5Zm-17.15-1h16.14V40H676.35Z" fill="#a7a9ac"/><rect x="677.87" y="41.08" width="9.59" height="6.88" fill="#a7a9ac"/><rect x="692.87" y="43.21" width="2.29" height="2.62" fill="#a7a9ac"/><path d="M668.68,47.66a.67.67,0,0,1-.34-.1c-3.7-2.2-6.14-.16-6.24,0a.68.68,0,0,1-1-.06h0a.7.7,0,0,1,0-1c.13-.12,3.26-2.85,7.84,0a.66.66,0,0,1,.23.91h0A.69.69,0,0,1,668.68,47.66Z" fill="#a7a9ac"/><path d="M670.05,45.33a.73.73,0,0,1-.35-.09c-5.34-3.18-8.93-.11-9-.08a.68.68,0,0,1-1-.06.67.67,0,0,1,.06-1s4.38-3.76,10.56-.07a.66.66,0,0,1,.23.91h0A.69.69,0,0,1,670.05,45.33Z" fill="#a7a9ac"/><path d="M671.3,42.74a.88.88,0,0,1-.36-.1c-6.77-4-11.26-.24-11.45,0a.67.67,0,0,1-.94-.06h0a.68.68,0,0,1,0-1h0s5.39-4.63,13-.08a.69.69,0,0,1,.24.93A.71.71,0,0,1,671.3,42.74Z" fill="#a7a9ac"/><path d="M666.69,48.78A1.71,1.71,0,1,1,665,47.09h0A1.71,1.71,0,0,1,666.69,48.78Z" fill="#a7a9ac"/><rect x="500.91" y="145.15" width="202.6" height="129.66" fill="none" stroke="#a7a9ac" stroke-miterlimit="10"/><rect x="500.91" y="260.37" width="202.6" height="14.45" fill="none" stroke="#a7a9ac" stroke-miterlimit="10"/><rect x="500.91" y="265.49" width="202.6" height="4.21" fill="none" stroke="#a7a9ac" stroke-miterlimit="10"/><path d="M504.17,131.17l.31-18.13h3.91l2.25,11.37L513,113h3.79l.32,18.13h-2.62l-.3-12.29-2.3,12.29h-2.38l-2.41-12.39-.26,12.39Z" fill="#d8d8d8"/><path d="M522,131.17v-7.11l-3.54-11H522l1.95,6.37,1.81-6.37h3.37l-3.5,11v7.11Z" fill="#d8d8d8"/><path d="M541.14,131.42a5.86,5.86,0,0,1-3.2-.76,4,4,0,0,1-1.63-2.12,9.62,9.62,0,0,1-.46-3.15v-6.51a10.17,10.17,0,0,1,.47-3.24,3.92,3.92,0,0,1,1.62-2,6,6,0,0,1,3.2-.74,6.23,6.23,0,0,1,3.06.64,3.54,3.54,0,0,1,1.56,1.85,7.35,7.35,0,0,1,.46,2.74v1.48h-3.58v-1.7a11.61,11.61,0,0,0,0-1.18,1.64,1.64,0,0,0-.37-.9,1.45,1.45,0,0,0-1.06-.34,1.41,1.41,0,0,0-1.06.35,1.64,1.64,0,0,0-.43.93,7.62,7.62,0,0,0-.08,1.26v8.25a6.58,6.58,0,0,0,.11,1.33,1.62,1.62,0,0,0,.47.88,1.53,1.53,0,0,0,1,.3,1.34,1.34,0,0,0,1-.34,1.84,1.84,0,0,0,.38-.94,8.42,8.42,0,0,0,0-1.23v-1.76h3.59V126a8.08,8.08,0,0,1-.45,2.84,3.68,3.68,0,0,1-1.55,1.92A5.64,5.64,0,0,1,541.14,131.42Z" fill="#d8d8d8"/><path d="M553.54,131.42a5.85,5.85,0,0,1-3.15-.72,4,4,0,0,1-1.67-2,9,9,0,0,1-.49-3.18V118.7a9.06,9.06,0,0,1,.49-3.19,3.87,3.87,0,0,1,1.67-2,6,6,0,0,1,3.15-.7,6.13,6.13,0,0,1,3.2.7,3.9,3.9,0,0,1,1.68,2,8.62,8.62,0,0,1,.51,3.18v6.77a8.62,8.62,0,0,1-.51,3.18,3.9,3.9,0,0,1-1.68,2A6,6,0,0,1,553.54,131.42Zm0-2.67a1.43,1.43,0,0,0,1.07-.33,1.58,1.58,0,0,0,.44-.86,5.91,5.91,0,0,0,.12-1.18v-8.52a5.74,5.74,0,0,0-.12-1.17,1.72,1.72,0,0,0-.44-.87,1.56,1.56,0,0,0-1.07-.31,1.42,1.42,0,0,0-1,.31,1.64,1.64,0,0,0-.46.87,6.53,6.53,0,0,0-.11,1.17v8.53a7.72,7.72,0,0,0,.1,1.18,1.55,1.55,0,0,0,.44.87A1.44,1.44,0,0,0,553.54,128.75Z" fill="#d8d8d8"/><path d="M566.5,131.42a6,6,0,0,1-3.2-.71,3.73,3.73,0,0,1-1.61-2,9.88,9.88,0,0,1-.45-3.24V113h3.64V126a9.77,9.77,0,0,0,.1,1.32,2.11,2.11,0,0,0,.45,1,1.32,1.32,0,0,0,1.07.42,1.42,1.42,0,0,0,1.08-.42,1.93,1.93,0,0,0,.44-1,9.76,9.76,0,0,0,.09-1.32V113h3.65v12.4a10.44,10.44,0,0,1-.45,3.24,3.79,3.79,0,0,1-1.61,2A6.16,6.16,0,0,1,566.5,131.42Z" fill="#d8d8d8"/><path d="M574.34,131.17V113H579a10.14,10.14,0,0,1,3.15.41,3.63,3.63,0,0,1,2,1.42,5.14,5.14,0,0,1,.69,2.84,9.36,9.36,0,0,1-.18,2,3.87,3.87,0,0,1-.67,1.42,3.45,3.45,0,0,1-1.42,1l2.51,8.84h-3.78l-2.09-8.22H578V131ZM578,120.76h1.07a2.91,2.91,0,0,0,1.42-.3,1.55,1.55,0,0,0,.73-.88,4.29,4.29,0,0,0,.21-1.42,3.46,3.46,0,0,0-.45-1.92,2,2,0,0,0-1.73-.66H578Z" fill="#d8d8d8"/><path d="M592,131.42a5.63,5.63,0,0,1-2.85-.62,4,4,0,0,1-1.69-1.85,8.84,8.84,0,0,1-.65-3.17l3.18-.54a8.93,8.93,0,0,0,.23,1.86,2.28,2.28,0,0,0,.58,1.12,1.38,1.38,0,0,0,1,.37,1,1,0,0,0,1-.44,2,2,0,0,0,.26-1,3.3,3.3,0,0,0-.54-1.91,8.84,8.84,0,0,0-1.43-1.56L589.2,122a7.22,7.22,0,0,1-1.65-1.92,5.1,5.1,0,0,1-.64-2.65,4.44,4.44,0,0,1,1.31-3.44,5.16,5.16,0,0,1,3.59-1.19,4.93,4.93,0,0,1,2.24.44,3.4,3.4,0,0,1,1.42,1.21,5.06,5.06,0,0,1,.67,1.63,12.92,12.92,0,0,1,.24,1.75l-3.17.47a13.65,13.65,0,0,0-.14-1.42,1.93,1.93,0,0,0-.4-1,1.25,1.25,0,0,0-1.77,0l-.11.12a2,2,0,0,0-.31,1.07,2.69,2.69,0,0,0,.44,1.58,8.55,8.55,0,0,0,1.19,1.29l1.84,1.61a10,10,0,0,1,2,2.25,5.52,5.52,0,0,1,.82,3.12,4.66,4.66,0,0,1-.58,2.31,4.2,4.2,0,0,1-1.62,1.62A4.93,4.93,0,0,1,592,131.42Z" fill="#d8d8d8"/><path d="M598.34,131.17V113h7.91v2.54H602v4.82h3.26V123H602v5.69h4.27v2.5Z" fill="#d8d8d8"/><path d="M503.31,299.79v-14.3h2v14.3Z" fill="#d1d3d4"/><path d="M507.59,299.79v-14.3H509L513,295v-9.5h1.67v14.3H513.4L509.29,290v9.77Z" fill="#d1d3d4"/><path d="M518.49,299.79V287h-2.42v-1.42h6.77V287h-2.35v12.8Z" fill="#d1d3d4"/><path d="M524.22,299.79v-14.3h2.84a6.23,6.23,0,0,1,2.38.38,2.56,2.56,0,0,1,1.42,1.21,4.78,4.78,0,0,1,.46,2.2,5.9,5.9,0,0,1-.19,1.51,2.73,2.73,0,0,1-.55,1.15,2.3,2.3,0,0,1-1,.68l2,7.12h-1.92L527.77,293h-1.55v6.72Zm2-8.15H527a3.65,3.65,0,0,0,1.43-.2,1.45,1.45,0,0,0,.78-.72,3.46,3.46,0,0,0,.24-1.42,2.81,2.81,0,0,0-.45-1.81,2.3,2.3,0,0,0-1.83-.55h-.88Z" fill="#d1d3d4"/><path d="M537.05,299.89a4.26,4.26,0,0,1-2.32-.55,3.12,3.12,0,0,1-1.24-1.62,7.14,7.14,0,0,1-.37-2.46v-5.32a7.49,7.49,0,0,1,.37-2.44,3.11,3.11,0,0,1,1.24-1.55,4.56,4.56,0,0,1,2.32-.54,4.28,4.28,0,0,1,2.29.56,3,3,0,0,1,1.22,1.55,6.82,6.82,0,0,1,.38,2.42v5.44a7,7,0,0,1-.38,2.44,3.18,3.18,0,0,1-1.22,1.62A4.06,4.06,0,0,1,537.05,299.89Zm0-1.56a1.87,1.87,0,0,0,1.19-.33,1.7,1.7,0,0,0,.56-.92,6.85,6.85,0,0,0,.12-1.43v-6.27a6.76,6.76,0,0,0-.12-1.42,1.62,1.62,0,0,0-.56-.88,2,2,0,0,0-1.19-.3,2.13,2.13,0,0,0-1.23.3,1.6,1.6,0,0,0-.55.88,6.17,6.17,0,0,0-.14,1.42v6.27a6.25,6.25,0,0,0,.14,1.43,1.69,1.69,0,0,0,.55.92,2,2,0,0,0,1.23.38Z" fill="#d1d3d4"/><path d="M543,299.79v-14.3h3.12a5.41,5.41,0,0,1,2.51.48,2.83,2.83,0,0,1,1.33,1.42,6.62,6.62,0,0,1,.4,2.42v5.26a7.66,7.66,0,0,1-.4,2.56,3.07,3.07,0,0,1-1.3,1.58,4.5,4.5,0,0,1-2.39.54Zm2-1.42h1.14a2.25,2.25,0,0,0,1.55-.43,1.85,1.85,0,0,0,.56-1.23,18.57,18.57,0,0,0,.1-2v-4.65a9.05,9.05,0,0,0-.15-1.8,1.4,1.4,0,0,0-.61-1A2.89,2.89,0,0,0,546,287H545Z" fill="#d1d3d4"/><path d="M555.9,299.89a3.91,3.91,0,0,1-2.37-.61,3.09,3.09,0,0,1-1.14-1.73,10.7,10.7,0,0,1-.3-2.64v-9.48H554V295a9.51,9.51,0,0,0,.13,1.68,2.19,2.19,0,0,0,.54,1.21,1.65,1.65,0,0,0,1.23.44,1.72,1.72,0,0,0,1.27-.44,2.4,2.4,0,0,0,.53-1.21,10.54,10.54,0,0,0,.11-1.68v-9.57h1.89v9.48a10.7,10.7,0,0,1-.3,2.64,3.06,3.06,0,0,1-1.12,1.73A3.85,3.85,0,0,1,555.9,299.89Z" fill="#d1d3d4"/><path d="M565.39,299.89a3.91,3.91,0,0,1-2.35-.62,3.18,3.18,0,0,1-1.16-1.72,8.2,8.2,0,0,1-.33-2.41v-5.05a8.34,8.34,0,0,1,.33-2.53A3,3,0,0,1,563,285.9a4.86,4.86,0,0,1,4.48-.1,2.71,2.71,0,0,1,1.14,1.42,6.21,6.21,0,0,1,.34,2.22v1.12h-1.86v-1a8.47,8.47,0,0,0-.09-1.42,1.48,1.48,0,0,0-.42-.95,1.67,1.67,0,0,0-1.18-.33,1.77,1.77,0,0,0-1.24.36,1.84,1.84,0,0,0-.51,1,10,10,0,0,0-.12,1.55v5.69a6.4,6.4,0,0,0,.19,1.69,1.44,1.44,0,0,0,.58.9,1.92,1.92,0,0,0,1.1.27,1.62,1.62,0,0,0,1.16-.37,1.72,1.72,0,0,0,.44-1,11.16,11.16,0,0,0,.09-1.42v-1.07H569v1.07a8.08,8.08,0,0,1-.31,2.3,2.81,2.81,0,0,1-1.11,1.55A3.68,3.68,0,0,1,565.39,299.89Z" fill="#d1d3d4"/><path d="M572.49,299.79V287h-2.43v-1.42h6.76V287h-2.34v12.8Z" fill="#d1d3d4"/><path d="M578.3,299.79v-14.3h2v14.3Z" fill="#d1d3d4"/><path d="M586.24,299.89a4.17,4.17,0,0,1-2.3-.55,3.07,3.07,0,0,1-1.24-1.62,7.14,7.14,0,0,1-.37-2.46v-5.32a7,7,0,0,1,.37-2.44,3.05,3.05,0,0,1,1.24-1.55,4.3,4.3,0,0,1,2.3-.54,4.22,4.22,0,0,1,2.3.56,3.09,3.09,0,0,1,1.23,1.55,6.82,6.82,0,0,1,.38,2.42v5.44a7.5,7.5,0,0,1-.38,2.44,3.29,3.29,0,0,1-1.23,1.62A4.06,4.06,0,0,1,586.24,299.89Zm0-1.56a1.93,1.93,0,0,0,1.21-.33,1.61,1.61,0,0,0,.54-.92,5.74,5.74,0,0,0,.14-1.43v-6.27A5.66,5.66,0,0,0,588,288a1.53,1.53,0,0,0-.54-.88,2,2,0,0,0-1.21-.3,2.06,2.06,0,0,0-1.21.3,1.55,1.55,0,0,0-.55.88,5.67,5.67,0,0,0-.15,1.42v6.27a5.75,5.75,0,0,0,.15,1.43,1.63,1.63,0,0,0,.55.92,1.94,1.94,0,0,0,1.21.38Z" fill="#d1d3d4"/><path d="M592.11,299.79v-14.3h1.35l4.07,9.5v-9.5h1.66v14.3h-1.28L593.8,290v9.77Z" fill="#d1d3d4"/><path d="M510.68,171.88V158.33h3.11a5.76,5.76,0,0,1,1.6.2,2.81,2.81,0,0,1,1.12.62,2.32,2.32,0,0,1,.67,1.07,4.48,4.48,0,0,1,.23,1.5,4.59,4.59,0,0,1-.22,1.43,2,2,0,0,1-1.73,1.4,2.67,2.67,0,0,1,2.08,1.77,5.51,5.51,0,0,1,.24,1.66,6.62,6.62,0,0,1-.2,1.6,3.57,3.57,0,0,1-.64,1.22,3,3,0,0,1-1.08.78,4.19,4.19,0,0,1-1.57.27Zm1.89-7.89h1.13a3.18,3.18,0,0,0,1.25-.23,1.25,1.25,0,0,0,.62-.73,3.85,3.85,0,0,0,.19-1.31,2.44,2.44,0,0,0-.29-1.42,1.23,1.23,0,0,0-.88-.52,9.11,9.11,0,0,0-1.56-.12h-.46Zm0,6.54h1.27a2,2,0,0,0,1.7-.6A3.38,3.38,0,0,0,516,168a4.07,4.07,0,0,0-.23-1.42,1.67,1.67,0,0,0-.72-.87,2.54,2.54,0,0,0-1.32-.3h-1.13Z" fill="#a7a9ac"/><path d="M522.94,172a3.67,3.67,0,0,1-2.26-.58,2.87,2.87,0,0,1-1.07-1.65,9.83,9.83,0,0,1-.28-2.48v-9h1.8v9.07a10.41,10.41,0,0,0,.12,1.58,2.15,2.15,0,0,0,.51,1.14,1.51,1.51,0,0,0,1.18.42,1.54,1.54,0,0,0,1.19-.42,2.14,2.14,0,0,0,.5-1.14,10.41,10.41,0,0,0,.12-1.58v-9.07h1.79v9a9.84,9.84,0,0,1-.29,2.48,2.85,2.85,0,0,1-1.06,1.65A3.66,3.66,0,0,1,522.94,172Z" fill="#a7a9ac"/><path d="M531.71,172a3.4,3.4,0,0,1-1.94-.5,3.09,3.09,0,0,1-1.18-1.42,5.83,5.83,0,0,1-.46-2.06l1.66-.46A9.9,9.9,0,0,0,530,169a2.51,2.51,0,0,0,.58,1.09,1.45,1.45,0,0,0,1.11.43,1.47,1.47,0,0,0,1.13-.41,1.81,1.81,0,0,0,.37-1.18,2.42,2.42,0,0,0-.42-1.43,7.92,7.92,0,0,0-1-1.12l-2.27-2a3.76,3.76,0,0,1-1-1.27,4.2,4.2,0,0,1-.31-1.72,3,3,0,0,1,.85-2.3,3.2,3.2,0,0,1,2.32-.83,4.3,4.3,0,0,1,1.42.22,2.56,2.56,0,0,1,1,.64,2.9,2.9,0,0,1,.66,1.09,5.49,5.49,0,0,1,.32,1.55l-1.6.43a7.22,7.22,0,0,0-.2-1.22,1.87,1.87,0,0,0-.53-.91,1.51,1.51,0,0,0-1.08-.34,1.45,1.45,0,0,0-1.09.38,1.39,1.39,0,0,0-.39,1.11,2.38,2.38,0,0,0,.2,1,2.8,2.8,0,0,0,.68.81l2.28,2a6.66,6.66,0,0,1,1.35,1.59,4,4,0,0,1,.6,2.2,3.31,3.31,0,0,1-.43,1.72,2.71,2.71,0,0,1-1.14,1.11A3.47,3.47,0,0,1,531.71,172Z" fill="#a7a9ac"/><path d="M536.54,171.88V158.33h1.86v13.55Z" fill="#a7a9ac"/><path d="M540.59,171.88V158.33h1.28l3.85,9v-9h1.51v13.55H546l-3.9-9.24v9.24Z" fill="#a7a9ac"/><path d="M549.42,171.88V158.33h5.25v1.42h-3.36v4.48H554v1.33h-2.72v5h3.39v1.35Z" fill="#a7a9ac"/><path d="M559.42,171.74a3.41,3.41,0,0,1-1.95-.5,3.09,3.09,0,0,1-1.18-1.42,5.63,5.63,0,0,1-.47-2.06l1.68-.45a6.28,6.28,0,0,0,.23,1.42,2.42,2.42,0,0,0,.56,1.09,1.7,1.7,0,0,0,2.24,0,1.69,1.69,0,0,0,.38-1.18,2.43,2.43,0,0,0-.43-1.43,6.55,6.55,0,0,0-1.05-1.12l-2.27-2a3.9,3.9,0,0,1-1-1.26,4.12,4.12,0,0,1-.32-1.73,3,3,0,0,1,.87-2.3A3.13,3.13,0,0,1,559,158a4.31,4.31,0,0,1,1.43.21,2.6,2.6,0,0,1,1,.64,3.1,3.1,0,0,1,.65,1.09,6,6,0,0,1,.33,1.55l-1.61.43a5.65,5.65,0,0,0-.2-1.22,2,2,0,0,0-.52-.91,1.52,1.52,0,0,0-1.08-.34,1.4,1.4,0,0,0-1.1.38,1.47,1.47,0,0,0-.4,1.11,2.14,2.14,0,0,0,.22,1,2.65,2.65,0,0,0,.68.81l2.29,2a6.68,6.68,0,0,1,1.35,1.6,4.06,4.06,0,0,1,.58,2.2,3.34,3.34,0,0,1-.41,1.72,2.86,2.86,0,0,1-1.15,1.11A3.54,3.54,0,0,1,559.42,171.74Z" fill="#a7a9ac"/><path d="M567.32,171.74a3.4,3.4,0,0,1-1.94-.5,3.09,3.09,0,0,1-1.18-1.42,5.43,5.43,0,0,1-.47-2.06l1.67-.45a7.64,7.64,0,0,0,.23,1.42,2.66,2.66,0,0,0,.57,1.09,1.43,1.43,0,0,0,1.12.43,1.42,1.42,0,0,0,1.11-.41,1.66,1.66,0,0,0,.39-1.18,2.43,2.43,0,0,0-.43-1.43,7,7,0,0,0-1-1.12l-2.28-2a4,4,0,0,1-1-1.26,4.28,4.28,0,0,1-.31-1.73,3.06,3.06,0,0,1,.85-2.3,3.15,3.15,0,0,1,2.32-.82,4.29,4.29,0,0,1,1.42.21,2.49,2.49,0,0,1,1,.64,3.13,3.13,0,0,1,.66,1.09,5.56,5.56,0,0,1,.32,1.55l-1.6.43a7.22,7.22,0,0,0-.2-1.22,1.87,1.87,0,0,0-.53-.91,1.51,1.51,0,0,0-1.08-.34,1.45,1.45,0,0,0-1.09.38,1.39,1.39,0,0,0-.39,1.11,2.12,2.12,0,0,0,.2,1,3,3,0,0,0,.68.81l2.29,2a6.68,6.68,0,0,1,1.35,1.6,4,4,0,0,1,.59,2.2,3.23,3.23,0,0,1-.42,1.72A2.86,2.86,0,0,1,569,171.4,3.47,3.47,0,0,1,567.32,171.74Z" fill="#a7a9ac"/><path d="M514.08,191.81a3.53,3.53,0,0,1-2.23-.61,3.09,3.09,0,0,1-1.11-1.62,8,8,0,0,1-.32-2.28v-4.78a8.77,8.77,0,0,1,.32-2.39,2.82,2.82,0,0,1,1.11-1.58,4.61,4.61,0,0,1,4.26-.1,2.68,2.68,0,0,1,1.08,1.34,6.18,6.18,0,0,1,.33,2.09V183h-1.79v-1a10.05,10.05,0,0,0-.09-1.34,1.42,1.42,0,0,0-.39-.89,1.65,1.65,0,0,0-1.13-.32,1.67,1.67,0,0,0-1.16.35,1.59,1.59,0,0,0-.49,1,9.7,9.7,0,0,0-.11,1.42v5.38a5.84,5.84,0,0,0,.17,1.61,1.45,1.45,0,0,0,.55.84,1.91,1.91,0,0,0,1,.25,1.42,1.42,0,0,0,1.1-.34,1.59,1.59,0,0,0,.42-.94,11.16,11.16,0,0,0,.09-1.42v-1h1.79v1a6.73,6.73,0,0,1-.31,2.18,2.79,2.79,0,0,1-1,1.42A3.54,3.54,0,0,1,514.08,191.81Z" fill="#a7a9ac"/><path d="M522.75,191.81a4,4,0,0,1-2.19-.54,3,3,0,0,1-1.16-1.52,7,7,0,0,1-.36-2.35v-5.12a6.39,6.39,0,0,1,.36-2.29,2.88,2.88,0,0,1,1.18-1.42,4.83,4.83,0,0,1,4.35,0A2.92,2.92,0,0,1,526.1,180a6.61,6.61,0,0,1,.35,2.29v5.16a6.68,6.68,0,0,1-.35,2.31,3.12,3.12,0,0,1-1.17,1.53A3.86,3.86,0,0,1,522.75,191.81Zm0-1.42a1.71,1.71,0,0,0,1.14-.32,1.35,1.35,0,0,0,.51-.86,4.84,4.84,0,0,0,.15-1.31v-6.05a4.69,4.69,0,0,0-.15-1.29,1.38,1.38,0,0,0-.51-.84,2.4,2.4,0,0,0-2.27,0,1.47,1.47,0,0,0-.54.84,5.59,5.59,0,0,0-.13,1.29v6a5.77,5.77,0,0,0,.13,1.31,1.44,1.44,0,0,0,.54.86A1.74,1.74,0,0,0,522.75,190.39Z" fill="#a7a9ac"/><path d="M528.27,191.67l.26-13.54h1.85l2.4,11,2.4-11H537l.25,13.54h-1.52l-.15-9.83-2.29,9.83h-1.07L530,181.84l-.15,9.83Z" fill="#a7a9ac"/><path d="M539.31,191.67l.25-13.54h1.87l2.39,11,2.4-11h1.83l.26,13.54h-1.52l-.16-9.83-2.24,9.83h-1.07L541,181.84l-.14,9.83Z" fill="#a7a9ac"/><path d="M553.89,191.81a3.86,3.86,0,0,1-2.27-.58,2.89,2.89,0,0,1-1.06-1.65,9.12,9.12,0,0,1-.29-2.49v-9h1.81v9.06a9.49,9.49,0,0,0,.11,1.6,2.06,2.06,0,0,0,.51,1.13,1.91,1.91,0,0,0,2.37,0,2.14,2.14,0,0,0,.49-1.13,8.57,8.57,0,0,0,.13-1.6v-9.06h1.79v9a8.76,8.76,0,0,1-.3,2.49,3,3,0,0,1-1,1.65A3.77,3.77,0,0,1,553.89,191.81Z" fill="#a7a9ac"/><path d="M559.46,191.67V178.13h1.29l3.86,9v-9h1.56v13.54H565l-3.89-9.25v9.25Z" fill="#a7a9ac"/><path d="M568.41,191.67V178.13h1.84v13.54Z" fill="#a7a9ac"/><path d="M575.84,191.81a3.55,3.55,0,0,1-2.23-.61,3.21,3.21,0,0,1-1.11-1.62,8,8,0,0,1-.31-2.28v-4.78a8.39,8.39,0,0,1,.31-2.39,3,3,0,0,1,1.11-1.58,3.67,3.67,0,0,1,2.23-.56,3.72,3.72,0,0,1,2,.46,2.87,2.87,0,0,1,1.07,1.34,6.18,6.18,0,0,1,.33,2.09V183h-1.8v-1a10,10,0,0,0-.07-1.34,1.5,1.5,0,0,0-.41-.89,1.61,1.61,0,0,0-1.12-.32,1.69,1.69,0,0,0-1.17.35,1.53,1.53,0,0,0-.48,1,8.51,8.51,0,0,0-.12,1.42v5.38a6.73,6.73,0,0,0,.17,1.61,1.47,1.47,0,0,0,.56.84,1.87,1.87,0,0,0,1,.25,1.49,1.49,0,0,0,1.11-.34,1.71,1.71,0,0,0,.41-.94,9.58,9.58,0,0,0,.08-1.42v-1h1.8v1a7.31,7.31,0,0,1-.3,2.18,2.85,2.85,0,0,1-1,1.42A3.67,3.67,0,0,1,575.84,191.81Z" fill="#a7a9ac"/><path d="M580.32,191.67l2.85-13.54H585l2.85,13.54h-1.8l-.61-3.42h-2.66l-.65,3.42ZM583,186.9h2.26l-1.14-6.1Z" fill="#a7a9ac"/><path d="M590.24,191.67V179.52H588V178.1h6.41v1.42h-2.23v12.15Z" fill="#a7a9ac"/><path d="M595.77,191.67V178.13h1.85v13.54Z" fill="#a7a9ac"/><path d="M603.28,191.81a4.06,4.06,0,0,1-2.21-.54,3,3,0,0,1-1.16-1.52,7.21,7.21,0,0,1-.36-2.35v-5.12a6.62,6.62,0,0,1,.37-2.29,2.81,2.81,0,0,1,1.17-1.42,4,4,0,0,1,2.19-.51,3.91,3.91,0,0,1,2.16.52A2.93,2.93,0,0,1,606.6,180a6.42,6.42,0,0,1,.36,2.29v5.17a6.44,6.44,0,0,1-.36,2.3,3.11,3.11,0,0,1-1.16,1.54A3.82,3.82,0,0,1,603.28,191.81Zm0-1.42a1.67,1.67,0,0,0,1.12-.32,1.42,1.42,0,0,0,.53-.86,5.76,5.76,0,0,0,.12-1.31v-6.05a5.59,5.59,0,0,0-.12-1.29,1.45,1.45,0,0,0-.53-.84,1.86,1.86,0,0,0-1.12-.28,2,2,0,0,0-1.16.28,1.44,1.44,0,0,0-.52.84,5.59,5.59,0,0,0-.13,1.29v6a5.77,5.77,0,0,0,.13,1.31,1.49,1.49,0,0,0,.52.86A1.84,1.84,0,0,0,603.28,190.39Z" fill="#a7a9ac"/><path d="M608.82,191.67V178.13h1.3l3.84,9v-9h1.53v13.54h-1.21l-3.89-9.25v9.25Z" fill="#a7a9ac"/><rect x="661.1" y="318.3" width="36.86" height="0.5" fill="#d1d3d4"/><rect x="578.18" y="318.3" width="75.84" height="0.5" fill="#d1d3d4"/><rect x="504.45" y="318.3" width="66.63" height="0.5" fill="#d1d3d4"/><rect x="553.36" y="328.94" width="144.6" height="0.5" fill="#d1d3d4"/><rect x="504.45" y="328.94" width="42.52" height="0.5" fill="#d1d3d4"/><rect x="677.41" y="339.57" width="20.55" height="0.5" fill="#d1d3d4"/><rect x="581.72" y="339.57" width="88.6" height="0.5" fill="#d1d3d4"/><rect x="504.45" y="339.57" width="69.47" height="0.5" fill="#d1d3d4"/><rect x="687.34" y="350.2" width="10.62" height="0.5" fill="#fff"/><rect x="658.98" y="350.2" width="21.26" height="0.5" fill="#d1d3d4"/><rect x="554.07" y="350.2" width="99.24" height="0.5" fill="#d1d3d4"/><rect x="504.45" y="350.2" width="43.23" height="0.5" fill="#d1d3d4"/><polygon points="680.95 158.66 650.48 170.01 661.81 174.97 643.38 199.08 629.91 184.19 582.43 230.97 554.07 214.66 509.12 254.85 543.55 254.85 558.32 238.06 585.26 251.53 625.66 206.16 649.05 216.09 668.91 179.22 682.38 186.31 680.95 158.66" fill="#a7a9ac"/><circle cx="657.46" cy="222.66" r="27.99" fill="#fff" stroke="#a7a9ac" stroke-miterlimit="10"/><circle cx="657.46" cy="222.65" r="24.11" fill="#fff" stroke="#a7a9ac" stroke-miterlimit="10"/><path d="M658,245.05v-4.26a8.71,8.71,0,0,1-6.58-2.85q-2.19-2.62-2.36-8.07l6.51-1a17.11,17.11,0,0,0,.38,3.57,3.88,3.88,0,0,0,1,2,2.32,2.32,0,0,0,1.61.6,1.54,1.54,0,0,0,1.55-.81,4.19,4.19,0,0,0,.35-1.71,6.28,6.28,0,0,0-1-3.6,15.44,15.44,0,0,0-2.75-3l-3-2.6a24.62,24.62,0,0,1-2.32-2.36,9.86,9.86,0,0,1-2.31-6.65,8.52,8.52,0,0,1,2.31-6.35,9.59,9.59,0,0,1,6.25-2.6v-4h2.16v4a7.83,7.83,0,0,1,4,1.12A6.58,6.58,0,0,1,666,209a10.71,10.71,0,0,1,1,3.11,22.23,22.23,0,0,1,.32,3l-6.6.8a20.26,20.26,0,0,0-.19-2.67,3.74,3.74,0,0,0-.6-1.77,1.54,1.54,0,0,0-1.42-.58,1.71,1.71,0,0,0-1.58.9,3.64,3.64,0,0,0-.51,1.79,5,5,0,0,0,1,3.3,23.07,23.07,0,0,0,2.28,2.36l2.84,2.51a25.58,25.58,0,0,1,2.66,2.85,12.44,12.44,0,0,1,1.93,3.33,11.28,11.28,0,0,1,.73,4.26,9,9,0,0,1-.94,4.13,8,8,0,0,1-2.67,3.06,9.34,9.34,0,0,1-4.18,1.42v4.26Z" fill="#d8d8d8"/><rect x="511.53" y="222.95" width="7.08" height="31.9" fill="#d8d8d8"/><rect x="524.29" y="234.42" width="7.08" height="20.42" fill="#d8d8d8"/><rect x="537.06" y="235.11" width="7.08" height="19.74" fill="#d8d8d8"/><rect x="549.82" y="222.95" width="7.08" height="31.9" fill="#d8d8d8"/><rect x="562.57" y="229.91" width="7.08" height="24.94" fill="#d8d8d8"/><rect x="575.33" y="233.04" width="7.08" height="21.82" fill="#d8d8d8"/><rect x="588.09" y="222.95" width="7.08" height="31.9" fill="#d8d8d8"/><rect x="600.86" y="213.57" width="7.08" height="41.28" fill="#d8d8d8"/><rect x="613.62" y="203.84" width="7.08" height="51.01" fill="#d8d8d8"/><rect x="565.15" y="382.22" width="82.57" height="8.26" fill="#d8d8d8"/><rect x="565.15" y="396.85" width="108.08" height="8.26" fill="#d8d8d8"/><rect x="565.15" y="445.83" width="82.57" height="8.26" fill="#d8d8d8"/><rect x="565.15" y="460.47" width="108.08" height="8.26" fill="#d8d8d8"/><rect x="503.58" y="368.41" width="47.5" height="47.93" rx="6.76" fill="#d8d8d8"/><circle cx="527.33" cy="392.37" r="11.9" opacity="0.29" style="isolation:isolate"/><rect x="503.58" y="430.29" width="47.5" height="47.93" rx="6.76" fill="#d8d8d8"/><circle cx="527.33" cy="454.25" r="11.9" opacity="0.29" style="isolation:isolate"/><circle cx="755.91" cy="418.38" r="11.9" opacity="0.2"/><line x1="506.13" y1="423.13" x2="698.69" y2="423.13" fill="none" stroke="#a7a9ac" stroke-miterlimit="10"/><line x1="691.29" y1="74.03" x2="706.33" y2="74.03" fill="#fff" stroke="#a7a9ac" stroke-miterlimit="10"/><line x1="691.29" y1="81.15" x2="706.33" y2="81.15" fill="#fff" stroke="#a7a9ac" stroke-miterlimit="10"/><line x1="691.29" y1="88.26" x2="706.33" y2="88.26" fill="#fff" stroke="#a7a9ac" stroke-miterlimit="10"/><rect x="502.09" y="69.29" width="183.17" height="23.72" fill="#fff" stroke="#a7a9ac" stroke-miterlimit="10"/><line x1="511.48" y1="85.1" x2="507.34" y2="90.32" fill="none" stroke="#a7a9ac" stroke-linecap="round" stroke-linejoin="round" stroke-width="2"/><line x1="514.51" y1="81.29" x2="511.48" y2="85.1" fill="none" stroke="#a7a9ac" stroke-miterlimit="10"/><line x1="529.77" y1="69.45" x2="529.77" y2="93.13" fill="none" stroke="#a7a9ac" stroke-miterlimit="10"/><path d="M185.07,385.35h0a.14.14,0,0,0-.08-.17.13.13,0,0,0-.17.07,178.93,178.93,0,0,0-9.4,29.45,276.59,276.59,0,0,0-5.19,30.54l-.72,7.72c-.12,1.29-.26,2.57-.36,3.87l-.21,3.85c-.1,2.59-.27,5.16-.34,7.75l.07,7.77.08,3.86c0,1.3.16,2.59.25,3.87.19,2.59.35,5.16.58,7.74.5,5.15,1.28,10.25,2.06,15.34a.14.14,0,0,0,.14.12s.15,0,.13-.13h0c0-2.58-.11-5.15-.17-7.72s-.3-5.14-.27-7.71,0-5.14-.09-7.7V468.5l.2-7.69.09-3.84c0-1.28.14-2.56.21-3.84l.47-7.68A274,274,0,0,1,176.7,415,178.09,178.09,0,0,1,185.07,385.35Z" fill="#38382e"/><path d="M186.16,425.54a.13.13,0,0,0-.08-.17.14.14,0,0,0-.18.08,188.59,188.59,0,0,0-5.46,19.5A183.52,183.52,0,0,0,177.2,465c-.68,6.72-1.42,13.46-1.52,20.22a167.6,167.6,0,0,0,.72,20.29.14.14,0,0,0,.28,0c.78-6.74,1.25-13.45,1.72-20.16s.54-13.46,1-20.17a178.41,178.41,0,0,1,2.36-20A186.27,186.27,0,0,1,186.16,425.54Z" fill="#38382e"/><path d="M208.45,439.67a.17.17,0,0,0-.19,0,68.24,68.24,0,0,0-14.9,13,60.06,60.06,0,0,0-5.82,8.09L186.35,463l-.94,2.34a20.94,20.94,0,0,0-.83,2.34c-.24.81-.51,1.6-.72,2.4a96.18,96.18,0,0,0-3.09,19.67,113.83,113.83,0,0,0,.74,19.79.18.18,0,0,0,.13.12.15.15,0,0,0,.14-.13l1.71-19.6A177.42,177.42,0,0,1,186,470.63c.19-.78.42-1.55.62-2.33a21.2,21.2,0,0,1,.68-2.32l.8-2.26,1-2.13a58.15,58.15,0,0,1,5.33-8.11,68,68,0,0,1,14-13.62h0a.13.13,0,0,0,0-.18Z" fill="#38382e"/><path d="M197.67,464.86A21.49,21.49,0,0,0,190.9,473a47.18,47.18,0,0,0-3.8,9.95c-.27.86-.48,1.73-.67,2.59l-.61,2.61a46.62,46.62,0,0,0-.67,5.29c0,1.77-.07,3.55,0,5.33a45.06,45.06,0,0,0,.7,5.29.1.1,0,0,0,.1.1.15.15,0,0,0,.17-.1,48.35,48.35,0,0,0,.94-5.22c.27-1.72.54-3.43.75-5.15s.47-3.41.61-5.13a38.25,38.25,0,0,1,.73-5.12,46,46,0,0,1,2.84-9.89,22.09,22.09,0,0,1,5.69-8.53h0a.13.13,0,0,0,0-.18h0Z" fill="#38382e"/><path d="M166.41,484.49c-.73-8.71-2.16-17.33-3.52-25.93s-2.84-17.19-4.43-25.75-3.34-17.07-5.18-25.6a.16.16,0,0,0-.16-.12.16.16,0,0,0-.11.17h0c1.49,8.54,2.84,17.17,4.11,25.79s2.53,17.21,3.61,25.84,1.89,17.28,3,25.89l3.17,25.9a.18.18,0,0,0,.13.12.14.14,0,0,0,.14-.12h0c.1-2.18.11-4.37.16-6.56s-.09-4.35-.13-6.54C167.12,493.18,166.75,488.84,166.41,484.49Z" fill="#38382e"/><path d="M161.2,484.36c-.47-3.44-1.11-6.87-1.76-10.28l-1.22-5.1c-.4-1.69-.77-3.38-1.27-5a142.17,142.17,0,0,0-6.66-19.8l-1-2.39-1.17-2.35c-.74-1.56-1.62-3.07-2.47-4.59a39.05,39.05,0,0,0-6.28-8.35.13.13,0,0,0-.18,0h0a.13.13,0,0,0,0,.18h0a38.23,38.23,0,0,1,5.69,8.53c.75,1.55,1.56,3.07,2.2,4.67l1,2.36.91,2.41a143.38,143.38,0,0,1,5.78,19.8c.8,3.34,1.33,6.76,2,10.13l.81,5.1c.3,1.69.66,3.37.9,5.08.54,3.41,1.16,6.8,1.76,10.19s1.15,6.83,1.86,10.24a.17.17,0,0,0,.15.12.14.14,0,0,0,.12-.14c0-3.47,0-7-.24-10.43S161.56,487.81,161.2,484.36Z" fill="#38382e"/><path d="M154,484.77c-1.61-4.56-3.47-9-5.5-13.41a120,120,0,0,0-6.93-12.7.13.13,0,0,0-.19.18h0A120.29,120.29,0,0,1,147.24,472c1.77,4.45,3.37,9,4.69,13.55s2.33,9.25,3.56,13.86,2.31,9.24,3.74,13.89a.13.13,0,0,0,.12.11.15.15,0,0,0,.15-.14,69.79,69.79,0,0,0-1.43-14.48A89.94,89.94,0,0,0,154,484.77Z" fill="#38382e"/><path d="M153.69,500a31.11,31.11,0,0,0-3.82-8,33.34,33.34,0,0,0-5.58-6.94,26.26,26.26,0,0,0-3.54-2.67,14.3,14.3,0,0,0-4-1.87.15.15,0,0,0-.16,0,.17.17,0,0,0,0,.19h0a20.23,20.23,0,0,1,6.77,5.3,31.36,31.36,0,0,1,4.65,7c1.32,2.51,2,5.27,3.14,7.84.52,1.32,1,2.64,1.61,4a31.12,31.12,0,0,0,1.75,4h0a.12.12,0,0,0,.11.07.12.12,0,0,0,.14-.11h0a31.62,31.62,0,0,0-.16-4.46C154.36,502.9,154.05,501.45,153.69,500Z" fill="#38382e"/><path d="M154.23,419.65A24.77,24.77,0,0,1,136.7,401c-3.31-15.36,7.31-8.78-2.21-32.86s-7.31-29.65-4-36.6,5.11-4.75,8,4.39S152,359.34,156.14,386,154.23,419.65,154.23,419.65Z" fill="#bcbec0"/><path d="M182.38,393.75s-9.5-3.3-9.87-21.2,7-14.22,8.05-36.55,2.56-38,6.57-38.4,14.63,11,18.29,35.83-4.77,41.24-12.08,48.6S182.38,393.75,182.38,393.75Z" fill="#bcbec0"/><path d="M149.11,441.21s-2.19-13.15-6.57-19.37-13.89-11.7-20.11-23.82-13.15-17.9-12.79-.73,8.1,26,17.54,31.86S149.11,441.21,149.11,441.21Z" fill="#bcbec0"/><path d="M145.1,463.88s-8.77-16.82-21.57-29.25-23-18.63-19.37-12.43,8,5.84,14.22,16.81,4.4,19,13.17,25.21S145.1,463.88,145.1,463.88Z" fill="#bcbec0"/><path d="M144,485.44c-.37-1.1-.74-9.15-13.17-15.72s-24.18-4-22.66-.74,9.13,8.78,16.81,12.08S144,485.44,144,485.44Z" fill="#bcbec0"/><path d="M181.65,441.94s-5.49-6.94-2.56-21.56,9.5-11,16.87-18.65,5.86-8.77,13.17-16.81,13.88-12.43,16.81-9.14-1.42,13.52-5.85,19.38-11.37,8.76-14.62,16.07-1.83,19-10.24,24.49S181.65,441.94,181.65,441.94Z" fill="#bcbec0"/><path d="M199.93,446,222.6,420c9.57-11,13.15-19.37,13.52-12.06s3.29,13.15-4.39,22.67S199.93,446,199.93,446Z" fill="#bcbec0"/><path d="M193,470.08s-.37-5.84,20.46-19.37,29.61-16.08,27.42-10.59-11.38,11-21.2,20.83S193,470.08,193,470.08Z" fill="#bcbec0"/><path d="M155.1,418.34a.27.27,0,0,1-.25-.21c0-.26-4.93-26.43-9.95-44.85s-8.37-29.84-8.4-30a.25.25,0,0,1,.48-.14c0,.11,3.39,11.54,8.41,30s9.91,44.63,10,44.89a.25.25,0,0,1-.2.29Z" fill="#38382e"/><path d="M181.54,394.22h-.08a.26.26,0,0,1-.16-.32c.09-.28,8.91-28.62,11.79-45.56,2.62-15.41.24-27.28-1.34-35.14l-.48-2.43a.25.25,0,0,1,.21-.29.25.25,0,0,1,.29.2c.14.75.31,1.56.48,2.42,1.58,7.89,4,19.82,1.34,35.33-2.88,17-11.72,45.34-11.81,45.62A.25.25,0,0,1,181.54,394.22Z" fill="#38382e"/><path d="M148,440.94a.27.27,0,0,1-.22-.13,136.13,136.13,0,0,0-13.44-19.15c-2.05-2.42-3.94-4.52-5.78-6.55-5.25-5.83-9.41-10.43-12.16-17.28a.25.25,0,1,1,.46-.19c2.73,6.77,6.85,11.34,12.08,17.13,1.83,2,3.73,4.14,5.79,6.57a137.38,137.38,0,0,1,13.49,19.22.25.25,0,0,1-.09.34A.2.2,0,0,1,148,440.94Z" fill="#38382e"/><path d="M181.65,442.19h0a.25.25,0,0,1-.21-.29c0-.17,3-17.7,9.92-26.79,2.7-3.56,6.42-7.84,10.35-12.38,6.2-7.15,12.61-14.55,16-20.12a.24.24,0,0,1,.34-.08.25.25,0,0,1,.09.34c-3.36,5.6-9.79,13-16,20.19-3.93,4.53-7.64,8.81-10.33,12.36-6.82,9-9.79,26.39-9.82,26.57A.26.26,0,0,1,181.65,442.19Z" fill="#38382e"/><path d="M143.14,485.29a.25.25,0,0,1-.14,0c-.12-.08-12.39-8.05-21-12.38a.25.25,0,1,1,.22-.46c8.68,4.35,21,12.34,21.09,12.42a.25.25,0,0,1,.07.35A.26.26,0,0,1,143.14,485.29Z" fill="#38382e"/><path d="M213.57,558.72c-.81-22.17-25.46-37-25.46-37H150.34s-24.65,14.79-25.49,37,27.93,103.52,27.93,103.52h32.85S214.45,580.89,213.57,558.72Z" fill="#38382e"/><polygon points="192.97 499.94 144.78 499.94 150.34 521.75 187.41 521.75 192.97 499.94" fill="#38382e"/><path d="M384,378.91s-12.47,13.22-12.47,17.37,1.5,14,.75,17.77-31.74,27.59-31.74,27.59l9.44,23.8s25.31-40,32.88-50.62,15.87-21.55,16.63-27.22S387.44,376.69,384,378.91Z" fill="#f9b499"/><path d="M386.11,477l36.74-14.48s23.92-27,42.24-46.81,41.24-15.28,41.24-1-6.61,35.56-12.72,44.8-18.33,33.08-18.33,33.08,42.77,10.18,54.47,16.79,58.72,40,82.9,57.4c15.9,11.38,25.13,16,27.67,16,.69,0,1.91-.12,3.36-.29,5.82-.68,12.8-6.81,17.8-10,6.87-4.27,17.38-10.17,23.5-10.81,9.67-1,6.11,13.22-1,23.41s-19.91,13.24-24.43,16.79-14.22,5.6-17.82,6.12-35.63-12.73-49.38-18.33-39.68-6.89-55.35-25.6A116.1,116.1,0,0,0,519.55,547s-85,3.55-100.27,5.09-50.39,2.54-65.15,2.54-22.28-5.84-22.28-5.84-5.69-7.91,2.94-20.62S386.11,477,386.11,477Z" fill="#38382e"/><path d="M684,585.22c7.11-10.19,10.68-24.44,1-23.41-6.12.64-16.63,6.55-23.5,10.81-5,3.07-12,9.2-17.8,10-1.42.17-2.67.29-3.36.29-2.14,0-9.11-3.3-20.85-11.25-1.65,6.85-6.42,15.51-19.22,21.49,15.46,6.3,38.48,15.53,41.47,15.1,3.57-.51,13.24-2.55,17.82-6.12S676.84,595.4,684,585.22Z" fill="#f9b499"/><path d="M684,585.22c7.11-10.19,10.68-24.44,1-23.41-6.12.64-16.63,6.55-23.5,10.81-5,3.07-12,9.2-17.8,10-1.42.17-2.67.29-3.36.29a7.36,7.36,0,0,1-2.07-.49c1.73,4.13,3.27,13-8.54,22.29,6.15,2.23,10.81,3.71,12,3.54,3.57-.51,13.24-2.55,17.82-6.12S676.84,595.4,684,585.22Z" fill="#0071f2"/><path d="M419.73,480.7a37.09,37.09,0,0,0-3.39-2.13" fill="none" stroke="#263238" stroke-miterlimit="10"/><path d="M475.27,492.58l-46.08-2.7a40.19,40.19,0,0,0-6.55-6.93" fill="none" stroke="#263238" stroke-miterlimit="10"/><path d="M393.07,500.84a23.55,23.55,0,0,1,6.81-4.27" fill="none" stroke="#263238" stroke-miterlimit="10"/><path d="M379.83,515.59A103.43,103.43,0,0,1,389,504.68" fill="none" stroke="#263238" stroke-miterlimit="10"/><path d="M385,501.71s-10.29,9.24-12.8,21.07" fill="none" stroke="#263238" stroke-miterlimit="10"/><path d="M386.11,477a14.15,14.15,0,0,1-.81,4.07c-.82,2.46-6.11,22.87-20.4,40.4a119.13,119.13,0,0,1-33,27.35,303.86,303.86,0,0,1-46.94-45.3c-24.09-28.57-38.39-55.9-37.55-87.74s11-51.83,11-51.83l-.82-24.49c1.63-4.08,10.21-9.78,21.63-2.44s20.41,24.49,20.41,24.49L298,371.31s4.89,3.27,7.75,4.91,13.47,11,22.85,22.84,19.19,47.36,20.82,56.33S364.5,466,364.5,466l13.86,7.37Z" fill="#0071f2"/><path d="M299.61,361.53,298,371.31s-25.3-8.16-39.58-7.34l-.82-24.49c1.63-4.08,10.21-9.78,21.63-2.44S299.61,361.53,299.61,361.53Z" fill="#f9b499"/><path d="M323.1,294.2c-.53,4.45-9.2,1.43-9.2,1.43L296,300.94s.37,7.43.2,12.35-10.4,8.23-10.4,8.23L284.4,344l-27-1.11-3.88-9.07s-17.07-16-15.2-31.77c1.13-9.68,8.42-19.13,20.13-24.18a46.63,46.63,0,0,1,12.8-3.37,57.43,57.43,0,0,1,14.23.15C312.65,278.15,323.63,289.69,323.1,294.2Z" fill="#38382e"/><path d="M274.7,413.76a293.89,293.89,0,0,0,20,46.11c13.07,24.08,32.71,50.2,40,48.57s48.56-72.65,51.41-78.76,7.36-15.11,7.36-15.11,9.38-6.94,10.19-9.8-1.08-16.41-1.08-16.41,5-6.54,3.36-9.4-4.37-2-7.21-.32-9.06,6.2-9.06,6.2a21.75,21.75,0,0,0,.17-9.73c-1.22-4.48-4.95-3-5.36-.11s-.4,5.68-1.62,8.53a40.91,40.91,0,0,0-3.74,10.85c-.81,4.89-3,18.13-3,18.13s-22.6,25.23-28.72,31.37c-3,3-9.45,7.94-9.45,7.94l-16.69-33.19s-8.54-30.2-17.55-38.4a29.24,29.24,0,0,0-32.71-4.5" fill="#0071f2"/><path d="M389.91,395.18h0a2.11,2.11,0,0,1-1.66-2.45v0l10.06-47a2.09,2.09,0,0,1,2.41-1.6h0a2.09,2.09,0,0,1,1.66,2.45v0L392.32,393.5A2.1,2.1,0,0,1,389.91,395.18Z" fill="#38382e"/><path d="M403.66,404.78c.81-2.85-1.08-16.42-1.08-16.42s5-6.54,3.36-9.4-4.37-2-7.21-.32-9.06,6.2-9.06,6.2a21.75,21.75,0,0,0,.17-9.73c-1.22-4.48-4.95-3-5.36-.11s-.4,5.68-1.62,8.53a40.91,40.91,0,0,0-3.74,10.85c-.81,4.89-3,18.13-3,18.13s-3.81,4.27-8.73,9.7l16.31,12c1.25-2.25,2.11-3.84,2.43-4.55,2.85-6.13,7.36-15.11,7.36-15.11S402.85,407.63,403.66,404.78Z" fill="#f9b499"/><path d="M478.72,423.12s-2.92,15.42,1.84,27.16,27.16,54.32,28.63,62-3.67,20.57.37,25.33,23.49,6.25,41.84,5.15,29-3.31,31.2-11S586.27,520,580.76,520s-11,.74-18.36-.72-23.48-10.66-25.68-12.12-4-5.87-4-5.87S527.55,486.25,522.4,451s-1.42-50.27-18-55.46-35.71,16-39.33,20.13" fill="#38382e"/><path d="M582.6,531.7c2.2-7.71,3.67-11.75-1.84-11.75s-11,.74-18.36-.72-23.48-10.65-25.68-12.12-4-5.87-4-5.87a189.82,189.82,0,0,1-5-20.1c-12.93-4.48-22.75,4-27.62,9.72,4.72,9.87,8.54,18.36,9.15,21.33,1.42,7.71-3.67,20.56.37,25.33s23.49,6.24,41.84,5.15S580.39,539.47,582.6,531.7Z" fill="#f9b499"/><path d="M580.76,520c-5.5,0-11,.74-18.36-.72s-23.48-10.66-25.68-12.12-4-5.87-4-5.87-.44-1.28-1.18-4c-13-.8-20.29,4.85-24.08,9.83a31.21,31.21,0,0,1,1.77,5.14c1.42,7.71-3.67,20.57.37,25.33s23.49,6.25,41.84,5.15,29-3.31,31.2-11S586.27,520,580.76,520Z" fill="#0071f2"/><rect x="260.33" y="607.33" width="142.97" height="8.49" fill="#d1d3d4"/><path d="M384.89,563.44l46.28,91.9a4.49,4.49,0,0,1-4,6.49h0a4.45,4.45,0,0,1-3.91-2.32l-51.11-93.24Z" fill="#d1d3d4"/><path d="M281.29,538.93,239.21,656.14a4.47,4.47,0,0,0,4.6,6.06h0a4.5,4.5,0,0,0,3.69-2.69l46.67-119Z" fill="#d1d3d4"/><path d="M269.53,398.55s-19.81-26.9-28.3-25.49S224.16,434.64,234.12,475s44.62,82,92.68,94.83c55.92,14.86,103.63-11.38,104-16.27S379.23,528.77,269.53,398.55Z" fill="#d1d3d4"/><path d="M326.8,569.82c55.92,14.86,103.63-11.38,104-16.27.17-2.07-8.7-6.69-27-20.68-91.77,3.25-145.2-33.07-169.09-55.31C245.55,517.08,279.77,557.3,326.8,569.82Z" opacity="0.29" style="isolation:isolate"/><path d="M685,602.81s-16.36-5.83-54.5-8.53-74.31,1.42-75.73,5c-1.08,2.7,4.47,38.11,7.11,54.61a10,10,0,0,0,9.83,8.38h104a10,10,0,0,0,9.84-8.45l6.32-41.13a8.53,8.53,0,0,0-6.7-9.84Z" fill="#d8d8d8"/><path d="M683.17,658.87c-50.44.11-77.29-25-90-47-4.95-8.53-13-13.71-21.33-16.74-10.07,1.12-16.56,2.67-17.07,4.14-1.08,2.7,4.47,38.11,7.11,54.61a10,10,0,0,0,9.83,8.38h104A9.94,9.94,0,0,0,683.17,658.87Z" opacity="0.29" style="isolation:isolate"/><path d="M313.9,295.63s22,37.3,1,72.3c-1.73,2.87-4.85,6.43-12.41,4.26s-18.65-9.15-22.76-12.51S273,332.19,273,332.19l8.53-2.7s-2.06-10.51-1-12.45,12.8-.55,10.78-7.78-6.22-10.18-3.86-12.8,26.43-.92,26.43-.92" fill="#f9b499"/><path d="M263.37,322.89l-10.19,5.69c-.43-.79-9.5-17.5-2.42-50.77a45.75,45.75,0,0,1,12.8-3.37c-4.13,15.94-4.27,27.67-3.46,35C261,318.38,263.36,322.85,263.37,322.89Z" fill="#38382e"/><path d="M263.37,322.89l-10.19,5.69c-.43-.79-9.5-17.5-2.42-50.77a45.75,45.75,0,0,1,12.8-3.37c-4.13,15.94-4.27,27.67-3.46,35C261,318.38,263.36,322.85,263.37,322.89Z" opacity="0.2"/><circle cx="268.35" cy="333.78" r="16.74" fill="#38382e"/><circle cx="268.35" cy="333.78" r="16.74" opacity="0.2" style="isolation:isolate"/><polygon points="534.23 454.52 523.88 448.53 523.88 460.5 534.23 454.52" fill="#fff"/><polygon points="534.23 392.63 523.88 386.66 523.88 398.62 534.23 392.63" fill="#fff"/><path d="M523.85,77.24a5.62,5.62,0,1,0-5.63,5.6h0a5.6,5.6,0,0,0,5.6-5.6Z" fill="#fff" stroke="#a7a9ac" stroke-miterlimit="10"/></svg>